<?xml version="1.0" encoding="UTF-8"?>
<svg fill="#ffd200" version="1.1" viewBox="0 0 128 128" xmlns="http://www.w3.org/2000/svg">
 <path d="m16.25 87.715-11.359 4.0703 10.508 29.652 11.359-4.0703zm6.9336-26.613-3.2188-24.746-4.0703 0.51562c-2.8789 0.33594-4.9062 3.0586-4.5703 5.9375l1.8672 14.398c0.33594 2.7188 3.0586 4.7461 5.9375 4.4102zm60.516-54.738c-1.3516 0.33594-2.3633 1.5273-2.2031 3.0586l8.1406 62.203c0.17969 1.3516 1.5273 2.3633 2.8789 2.2031 1.3516-0.33594 2.3633-1.3516 2.2031-2.8789l-7.9805-62.203c-0.33984-1.5273-1.5312-2.543-3.0391-2.3828zm-18.473 104.73c-3.2188 1.1914-6.4375 2.3633-9.6523 3.5547l2.0273 6.0977c0.33594 0.67578 1.0117 1.0117 1.8672 0.85156l7.1094-2.3633c0.67578-0.33594 1.1914-1.0117 0.85156-1.6875zm-52.035-17.957c1.5273 1.3516-0.67578 3.5547-2.0273 2.2031-1.5273-1.3477 0.67578-3.5547 2.0273-2.2031zm39.82-69.316c-11.52 0-20.676 9.3164-20.676 20.852 0 9.1562 5.7617 16.781 13.902 19.664 13.227 4.5703 27.625-5.4219 27.625-19.664 0.003907-11.535-9.3281-20.852-20.852-20.852zm-14.914 39.328c-5.4219-4.4102-8.8164-11.023-8.8164-18.473 0-5.2617 1.6875-9.9922 4.5703-14.062l-9.4922 1.3516c-1.0117 0.51562-1.8672 0.67578-1.6875 2.0273l3.7344 28.641c0.17969 1.0117 1.0117 1.8672 2.0273 1.6875zm12.551 5.2422c-3.2188-0.33594-6.0977-1.3516-8.8164-2.7188l-2.8789 0.33594 3.8945 11.023 9.6523-3.3945zm10.668-46.098c8.9766 3.3945 15.414 12.195 15.414 22.363 0 8.1406-3.8945 15.254-9.9922 19.484l19.484 4.4102-7.2891-55.414zm-9.832 10.348c0-2.0273 3.0586-2.0273 3.0586 0v1.3516c2.7188 0.67578 4.7461 3.0586 4.7461 5.9375 0 2.0273-3.0586 2.0273-3.0586 0 0-1.6875-1.3516-3.0586-3.2188-3.0586-1.6875 0-3.2188 1.3516-3.2188 3.0586 0 1.8672 1.5273 3.2188 3.2188 3.2188 3.3945 0 6.2773 2.8789 6.2773 6.2773 0 2.8789-2.0273 5.2617-4.7461 5.9375v1.3516c0 2.0273-3.0586 2.0273-3.0586 0v-1.3516c-2.543-0.67578-4.5703-3.0586-4.5703-5.9375 0-2.0273 2.8789-2.0273 2.8789 0 0 1.6875 1.5273 3.0586 3.2188 3.0586 1.8672 0 3.2188-1.3516 3.2188-3.0586 0-1.8672-1.3516-3.2188-3.2188-3.2188-3.3945 0-6.0977-2.7188-6.0977-6.2773 0-2.8789 1.8672-5.2617 4.5703-5.9375zm1.5273-2.3828c-7.9648 0-14.398 6.4375-14.398 14.398 0 7.9648 6.4375 14.398 14.398 14.398 7.9648 0 14.398-6.4375 14.398-14.398 0.003906-7.9453-6.4336-14.398-14.398-14.398zm0-3.0391c9.6523 0 17.457 7.8047 17.457 17.457 0 9.6523-7.8047 17.457-17.457 17.457-4.5703 0-8.9766-1.8672-12.375-5.0859-3.0352-3.2344-5.082-7.6406-5.082-12.371 0-9.6719 7.8047-17.457 17.457-17.457zm41.691 20.16c4.0703-1.1914 6.6133-5.2617 6.0977-9.6523-0.67578-4.2305-4.2305-7.2891-8.3008-7.4492zm5.9375-20.836c-1.6875-1.1914 0-3.5547 1.6875-2.543 8.1406 5.2617 10.508 16.266 5.0859 24.57-1.0117 1.5273-3.5547 0-2.3633-1.6875 4.4062-6.793 2.3633-15.949-4.4102-20.34zm6.9492-10.863c-1.5273-1.0117 0-3.5547 1.6875-2.3633 14.062 9.1562 18.133 28.125 8.8164 42.203-1.0117 1.6875-3.5547 0-2.3633-1.6875 8.2891-12.73 4.5703-29.832-8.1406-38.152zm-3.5547 5.4219c-1.5273-1.0117 0-3.5547 1.6875-2.3633 11.184 7.1094 14.238 22.027 6.9492 33.207-1.0117 1.6875-3.5547 0-2.3633-1.6875 6.2617-9.6523 3.5391-22.703-6.2734-29.156zm-44.41 50.168c-0.67578-1.8672-1.6875-3.0586-3.8945-3.0586-0.51562 0.17969-1.1914 0.17969-1.8672 0.17969l1.5273 4.2305zm-21.188 2.207-5.4219 2.0273c-5.2617 1.8672-8.8164 6.9492-8.6406 12.535 0 0.67578-0.33594 1.3516-1.0117 1.5273l-3.0586 1.0117 7.9648 21.867 3.5547-1.3516c0.51562-0.17969 1.1914-0.17969 1.5273 0.33594 3.5547 3.5547 8.9766 4.9062 13.723 3.0586 8.8164-3.0586 17.617-6.2773 26.438-9.4922 3.2188-1.1914 1.6875-6.4375-2.0273-5.0859-2.0273 0.67578-2.8789-2.2031-1.0117-2.8789l3.0586-1.0117c3.8945-1.3516 1.8672-7.1094-1.8672-6.0977l-2.2031 0.85156c-1.8672 0.67578-2.8789-2.2031-1.0117-2.8789 0.85156-0.33594 1.6875-0.51562 2.543-0.85156 4.2305-1.6875 1.6875-7.4492-2.0273-6.0977-1.0117 0.33594-1.8672 0.67578-2.8789 1.0117-1.8672 0.67578-2.8789-2.0273-1.0117-2.7188 0.85156-0.33594 1.5273-0.51562 2.3633-0.85156 3.7344-1.5273 1.6875-7.2891-2.2031-5.9375l-22.879 7.9648c-0.67578 0.17969-1.3516 0-1.8672-0.85156z" />
</svg>
