<?xml version="1.0" standalone="no"?>
<!DOCTYPE svg PUBLIC "-//W3C//DTD SVG 20010904//EN"
 "http://www.w3.org/TR/2001/REC-SVG-20010904/DTD/svg10.dtd">
<svg version="1.0" xmlns="http://www.w3.org/2000/svg"
 width="700.000000pt" height="700.000000pt" viewBox="0 0 700.000000 700.000000"
 preserveAspectRatio="xMidYMid meet">
<metadata>
Created by potrace 1.14, written by Peter Selinger 2001-2017
</metadata>
<g transform="translate(0.000000,700.000000) scale(0.100000,-0.100000)"
fill="#000000" stroke="none">
<path d="M4535 6638 c-27 -16 -48 -38 -63 -70 l-24 -47 221 -1693 c122 -931
226 -1716 232 -1744 19 -98 117 -152 198 -109 51 26 81 71 81 123 0 26 -97
808 -216 1737 -234 1834 -222 1757 -289 1796 -52 30 -95 32 -140 7z"/>
<path d="M5871 6264 c-26 -33 -27 -88 -2 -111 10 -10 49 -40 87 -68 232 -168
424 -428 522 -705 153 -436 105 -893 -134 -1291 -43 -72 -44 -109 -3 -143 59
-50 91 -34 159 79 92 152 154 307 194 486 104 463 5 948 -272 1339 -133 188
-418 440 -498 440 -23 0 -38 -7 -53 -26z"/>
<path d="M3890 6064 c-228 -119 -444 -231 -479 -249 l-65 -32 87 -41 c132 -62
249 -143 357 -248 118 -114 205 -234 270 -369 87 -183 119 -314 127 -520 11
-286 -60 -542 -216 -780 -45 -69 -223 -257 -291 -307 -26 -19 -31 -28 -20 -31
33 -12 1052 -239 1055 -235 3 3 -375 2909 -390 2996 -3 17 -9 32 -13 32 -4 0
-194 -97 -422 -216z"/>
<path d="M5710 5993 c-42 -15 -69 -69 -56 -111 4 -11 46 -49 95 -85 305 -228
475 -588 458 -971 -8 -193 -54 -356 -143 -512 -59 -104 -63 -122 -29 -162 21
-25 35 -32 61 -32 46 0 67 24 132 148 110 210 159 428 149 667 -11 257 -78
467 -219 680 -65 99 -229 265 -323 327 -74 49 -100 60 -125 51z"/>
<path d="M2705 5684 c-510 -91 -889 -508 -934 -1027 -49 -564 304 -1062 857
-1209 54 -14 121 -21 227 -25 128 -4 165 -2 255 17 364 75 664 308 825 642 25
51 57 138 72 193 25 92 27 115 27 285 0 168 -3 194 -27 284 -34 128 -118 300
-195 402 -256 338 -694 512 -1107 438z m305 -184 c611 -74 990 -692 780 -1273
-100 -274 -336 -495 -625 -583 -83 -26 -104 -28 -260 -28 -149 -1 -180 2 -249
22 -273 79 -476 244 -600 489 -269 530 -3 1161 564 1337 137 43 248 53 390 36z"/>
<path d="M2755 5336 c-320 -63 -566 -306 -631 -625 -22 -112 -15 -276 16 -376
87 -278 296 -475 580 -546 111 -28 297 -23 405 11 213 67 384 212 480 405 53
108 75 189 82 306 24 370 -217 707 -579 809 -94 27 -259 34 -353 16z m204 -72
c15 -19 21 -41 21 -75 l0 -48 60 -27 c107 -48 182 -150 196 -266 6 -52 4 -59
-19 -82 -51 -51 -137 -20 -137 48 0 17 -9 49 -19 72 -46 102 -175 133 -269 64
-86 -62 -97 -177 -24 -253 39 -41 57 -49 149 -63 45 -6 103 -22 130 -35 100
-48 175 -156 189 -270 16 -138 -78 -290 -208 -337 l-48 -17 0 -53 c0 -64 -30
-102 -80 -102 -51 0 -80 38 -80 103 l0 54 -40 12 c-57 17 -152 108 -180 172
-27 64 -37 148 -21 178 38 71 141 34 141 -51 0 -12 9 -41 21 -65 60 -124 255
-126 317 -3 26 52 28 96 7 147 -32 76 -72 100 -185 113 -97 11 -161 42 -219
105 -67 73 -86 124 -86 230 0 71 5 100 22 137 37 82 108 146 196 177 25 10 27
15 27 63 0 67 26 98 81 98 29 0 42 -6 58 -26z"/>
<path d="M5486 5669 c-47 -56 -36 -83 66 -162 258 -197 373 -537 287 -848 -18
-64 -44 -123 -103 -234 -46 -86 75 -159 138 -84 41 49 106 193 131 293 59 234
34 468 -73 681 -48 96 -85 148 -161 229 -146 153 -231 190 -285 125z"/>
<path d="M5060 5333 c-1 -10 25 -222 57 -470 43 -343 61 -453 71 -453 34 0
132 60 187 115 121 121 171 299 130 460 -49 188 -205 328 -402 360 -38 6 -43
4 -43 -12z"/>
<path d="M1575 5291 c-306 -46 -340 -60 -337 -142 3 -68 202 -1578 212 -1603
12 -33 58 -66 91 -66 32 0 532 60 537 64 1 2 -39 46 -91 97 -192 194 -316 433
-362 696 -22 123 -20 339 4 461 32 165 96 326 186 466 19 30 35 58 35 61 0 7
11 8 -275 -34z"/>
<path d="M918 4994 c-102 -14 -156 -35 -212 -85 -39 -34 -80 -114 -89 -174 -7
-45 96 -868 116 -924 18 -53 99 -135 156 -160 28 -12 74 -22 103 -23 47 -2
268 21 276 28 2 1 -36 307 -84 678 l-88 676 -40 -1 c-23 -1 -85 -7 -138 -15z"/>
<path d="M2185 3403 c-22 -3 -44 -8 -48 -12 -6 -6 180 -560 202 -597 4 -7 92
20 263 80 141 50 260 94 264 98 8 8 -85 280 -99 289 -5 4 -33 9 -62 13 -74 8
-214 51 -322 97 -90 38 -107 41 -198 32z"/>
<path d="M2974 3261 l-31 -6 40 -112 c23 -62 46 -113 52 -113 5 0 57 15 115
33 68 21 106 38 108 48 5 26 -60 112 -103 136 -41 23 -109 28 -181 14z"/>
<path d="M2941 2825 c-354 -124 -649 -225 -656 -225 -7 0 -24 9 -38 20 -19 16
-39 60 -82 190 -31 94 -62 170 -68 170 -32 0 -382 -143 -440 -179 -91 -58
-195 -172 -245 -268 -52 -101 -72 -174 -81 -294 -4 -54 -13 -104 -19 -112 -7
-8 -51 -26 -100 -42 -48 -15 -91 -31 -95 -35 -7 -6 412 -1183 427 -1197 2 -3
54 14 115 36 61 23 115 41 120 41 5 0 42 -28 82 -61 172 -145 400 -207 601
-164 101 21 1518 526 1582 563 69 41 92 118 58 195 -13 28 -34 55 -54 67 -29
19 -43 20 -119 15 -85 -6 -87 -6 -108 21 -51 65 -15 110 124 154 55 18 114 43
131 56 124 92 50 314 -105 314 -22 0 -76 -13 -120 -30 -104 -38 -142 -27 -157
47 -9 46 26 76 123 108 140 45 188 94 187 190 -1 60 -21 101 -68 143 -56 49
-101 50 -225 8 -57 -20 -117 -36 -132 -36 -57 0 -90 74 -51 118 9 11 51 32 92
47 102 36 135 58 159 109 25 51 27 93 6 144 -31 73 -86 112 -157 112 -29 -1
-247 -72 -687 -225z"/>
<path d="M578 2096 c-172 -62 -308 -116 -308 -122 0 -18 560 -1597 570 -1608
13 -13 626 209 622 226 -7 29 -566 1603 -571 1609 -3 3 -144 -44 -313 -105z
m122 -181 c29 -15 47 -53 41 -85 -11 -55 -86 -78 -128 -38 -47 44 -18 118 55
137 2 1 16 -6 32 -14z"/>
<path d="M3305 832 c-143 -52 -262 -97 -265 -99 -9 -8 111 -351 128 -365 37
-33 63 -29 282 45 176 59 217 77 233 99 l20 27 -62 183 c-35 101 -66 188 -69
194 -5 8 -89 -18 -267 -84z"/>
</g>
</svg>
